<mxfile host="app.diagrams.net" agent="Mozilla/5.0 (Windows NT 10.0; Win64; x64) AppleWebKit/537.36 (KHTML, like Gecko) Chrome/139.0.0.0 Safari/537.36" version="28.2.0" pages="2">
  <diagram name="Page-1" id="mhwuRIIP0paWbbbugPuP">
    <mxGraphModel dx="2391" dy="1238" grid="1" gridSize="10" guides="1" tooltips="1" connect="1" arrows="1" fold="1" page="1" pageScale="1" pageWidth="850" pageHeight="1100" math="0" shadow="0">
      <root>
        <mxCell id="0" />
        <mxCell id="1" parent="0" />
        <mxCell id="-GfR8gVa66NmHEzd7DJw-1" value="" style="rounded=0;whiteSpace=wrap;html=1;fillColor=none;strokeColor=#d3d3d3;strokeWidth=2;" vertex="1" parent="1">
          <mxGeometry x="560" y="330" width="1400" height="1040" as="geometry" />
        </mxCell>
        <mxCell id="-GfR8gVa66NmHEzd7DJw-2" style="edgeStyle=orthogonalEdgeStyle;rounded=0;orthogonalLoop=1;jettySize=auto;html=1;entryX=1;entryY=0.5;entryDx=0;entryDy=0;endArrow=none;endFill=0;" edge="1" parent="1" source="-GfR8gVa66NmHEzd7DJw-3" target="-GfR8gVa66NmHEzd7DJw-25">
          <mxGeometry relative="1" as="geometry" />
        </mxCell>
        <mxCell id="-GfR8gVa66NmHEzd7DJw-3" value="User" style="rounded=0;whiteSpace=wrap;html=1;fillColor=#dae8fc;strokeColor=#6c8ebf;" vertex="1" parent="1">
          <mxGeometry x="825" y="510" width="120" height="50" as="geometry" />
        </mxCell>
        <mxCell id="-GfR8gVa66NmHEzd7DJw-4" value="&lt;u&gt;id&lt;/u&gt;" style="ellipse;whiteSpace=wrap;html=1;align=center;fillColor=#fff2cc;strokeColor=#d6b656;" vertex="1" parent="1">
          <mxGeometry x="660" y="450" width="100" height="40" as="geometry" />
        </mxCell>
        <mxCell id="-GfR8gVa66NmHEzd7DJw-5" value="fname" style="ellipse;whiteSpace=wrap;html=1;align=center;fillColor=#fff2cc;strokeColor=#d6b656;" vertex="1" parent="1">
          <mxGeometry x="710" y="390" width="100" height="40" as="geometry" />
        </mxCell>
        <mxCell id="-GfR8gVa66NmHEzd7DJw-6" value="lname" style="ellipse;whiteSpace=wrap;html=1;align=center;fillColor=#fff2cc;strokeColor=#d6b656;" vertex="1" parent="1">
          <mxGeometry x="810" y="360" width="100" height="40" as="geometry" />
        </mxCell>
        <mxCell id="-GfR8gVa66NmHEzd7DJw-7" value="email" style="ellipse;whiteSpace=wrap;html=1;align=center;fillColor=#fff2cc;strokeColor=#d6b656;" vertex="1" parent="1">
          <mxGeometry x="945" y="370" width="100" height="40" as="geometry" />
        </mxCell>
        <mxCell id="-GfR8gVa66NmHEzd7DJw-8" value="username" style="ellipse;whiteSpace=wrap;html=1;align=center;fillColor=#fff2cc;strokeColor=#d6b656;" vertex="1" parent="1">
          <mxGeometry x="1040" y="410" width="100" height="40" as="geometry" />
        </mxCell>
        <mxCell id="-GfR8gVa66NmHEzd7DJw-9" value="password" style="ellipse;whiteSpace=wrap;html=1;align=center;fillColor=#fff2cc;strokeColor=#d6b656;" vertex="1" parent="1">
          <mxGeometry x="1060" y="470" width="100" height="40" as="geometry" />
        </mxCell>
        <mxCell id="-GfR8gVa66NmHEzd7DJw-10" value="" style="endArrow=none;html=1;rounded=0;entryX=0.448;entryY=0.016;entryDx=0;entryDy=0;exitX=1;exitY=1;exitDx=0;exitDy=0;entryPerimeter=0;" edge="1" parent="1" source="-GfR8gVa66NmHEzd7DJw-4" target="-GfR8gVa66NmHEzd7DJw-3">
          <mxGeometry relative="1" as="geometry">
            <mxPoint x="770" y="560" as="sourcePoint" />
            <mxPoint x="880" y="600" as="targetPoint" />
          </mxGeometry>
        </mxCell>
        <mxCell id="-GfR8gVa66NmHEzd7DJw-11" value="" style="endArrow=none;html=1;rounded=0;entryX=0.448;entryY=0.016;entryDx=0;entryDy=0;exitX=0.608;exitY=1.02;exitDx=0;exitDy=0;entryPerimeter=0;exitPerimeter=0;" edge="1" parent="1" source="-GfR8gVa66NmHEzd7DJw-5" target="-GfR8gVa66NmHEzd7DJw-3">
          <mxGeometry relative="1" as="geometry">
            <mxPoint x="770" y="560" as="sourcePoint" />
            <mxPoint x="880" y="600" as="targetPoint" />
          </mxGeometry>
        </mxCell>
        <mxCell id="-GfR8gVa66NmHEzd7DJw-12" value="" style="endArrow=none;html=1;rounded=0;entryX=0.448;entryY=0.016;entryDx=0;entryDy=0;exitX=0.5;exitY=1;exitDx=0;exitDy=0;entryPerimeter=0;" edge="1" parent="1" source="-GfR8gVa66NmHEzd7DJw-6" target="-GfR8gVa66NmHEzd7DJw-3">
          <mxGeometry relative="1" as="geometry">
            <mxPoint x="770" y="560" as="sourcePoint" />
            <mxPoint x="880" y="600" as="targetPoint" />
          </mxGeometry>
        </mxCell>
        <mxCell id="-GfR8gVa66NmHEzd7DJw-13" value="" style="endArrow=none;html=1;rounded=0;entryX=0.448;entryY=0.016;entryDx=0;entryDy=0;entryPerimeter=0;" edge="1" parent="1" source="-GfR8gVa66NmHEzd7DJw-7" target="-GfR8gVa66NmHEzd7DJw-3">
          <mxGeometry relative="1" as="geometry">
            <mxPoint x="770" y="560" as="sourcePoint" />
            <mxPoint x="880" y="600" as="targetPoint" />
          </mxGeometry>
        </mxCell>
        <mxCell id="-GfR8gVa66NmHEzd7DJw-14" value="" style="endArrow=none;html=1;rounded=0;entryX=0.448;entryY=0.016;entryDx=0;entryDy=0;entryPerimeter=0;exitX=0.06;exitY=0.84;exitDx=0;exitDy=0;exitPerimeter=0;" edge="1" parent="1" source="-GfR8gVa66NmHEzd7DJw-8" target="-GfR8gVa66NmHEzd7DJw-3">
          <mxGeometry relative="1" as="geometry">
            <mxPoint x="770" y="560" as="sourcePoint" />
            <mxPoint x="880" y="600" as="targetPoint" />
          </mxGeometry>
        </mxCell>
        <mxCell id="-GfR8gVa66NmHEzd7DJw-15" value="" style="endArrow=none;html=1;rounded=0;entryX=0.448;entryY=0.016;entryDx=0;entryDy=0;entryPerimeter=0;exitX=0;exitY=0.5;exitDx=0;exitDy=0;" edge="1" parent="1" source="-GfR8gVa66NmHEzd7DJw-9" target="-GfR8gVa66NmHEzd7DJw-3">
          <mxGeometry relative="1" as="geometry">
            <mxPoint x="770" y="560" as="sourcePoint" />
            <mxPoint x="880" y="600" as="targetPoint" />
          </mxGeometry>
        </mxCell>
        <mxCell id="-GfR8gVa66NmHEzd7DJw-16" style="edgeStyle=orthogonalEdgeStyle;rounded=0;orthogonalLoop=1;jettySize=auto;html=1;entryX=0;entryY=0.5;entryDx=0;entryDy=0;endArrow=none;endFill=0;" edge="1" parent="1" source="-GfR8gVa66NmHEzd7DJw-20" target="-GfR8gVa66NmHEzd7DJw-43">
          <mxGeometry relative="1" as="geometry">
            <Array as="points">
              <mxPoint x="760" y="1140" />
            </Array>
          </mxGeometry>
        </mxCell>
        <mxCell id="-GfR8gVa66NmHEzd7DJw-17" value="M" style="edgeLabel;html=1;align=center;verticalAlign=middle;resizable=0;points=[];" vertex="1" connectable="0" parent="-GfR8gVa66NmHEzd7DJw-16">
          <mxGeometry x="0.0906" y="1" relative="1" as="geometry">
            <mxPoint as="offset" />
          </mxGeometry>
        </mxCell>
        <mxCell id="-GfR8gVa66NmHEzd7DJw-18" style="edgeStyle=orthogonalEdgeStyle;rounded=0;orthogonalLoop=1;jettySize=auto;html=1;entryX=0;entryY=0.5;entryDx=0;entryDy=0;endArrow=none;endFill=0;" edge="1" parent="1" source="-GfR8gVa66NmHEzd7DJw-20" target="-GfR8gVa66NmHEzd7DJw-66">
          <mxGeometry relative="1" as="geometry">
            <Array as="points">
              <mxPoint x="790" y="1010" />
            </Array>
          </mxGeometry>
        </mxCell>
        <mxCell id="-GfR8gVa66NmHEzd7DJw-19" value="1" style="edgeLabel;html=1;align=center;verticalAlign=middle;resizable=0;points=[];" vertex="1" connectable="0" parent="-GfR8gVa66NmHEzd7DJw-18">
          <mxGeometry x="0.3811" y="-2" relative="1" as="geometry">
            <mxPoint x="1" as="offset" />
          </mxGeometry>
        </mxCell>
        <mxCell id="-GfR8gVa66NmHEzd7DJw-20" value="Student" style="rounded=0;whiteSpace=wrap;html=1;fillColor=#dae8fc;strokeColor=#6c8ebf;" vertex="1" parent="1">
          <mxGeometry x="700" y="840" width="120" height="50" as="geometry" />
        </mxCell>
        <mxCell id="-GfR8gVa66NmHEzd7DJw-21" style="edgeStyle=orthogonalEdgeStyle;rounded=0;orthogonalLoop=1;jettySize=auto;html=1;entryX=0;entryY=0.5;entryDx=0;entryDy=0;endArrow=none;endFill=0;" edge="1" parent="1" source="-GfR8gVa66NmHEzd7DJw-23" target="-GfR8gVa66NmHEzd7DJw-32">
          <mxGeometry relative="1" as="geometry" />
        </mxCell>
        <mxCell id="-GfR8gVa66NmHEzd7DJw-22" value="1" style="edgeLabel;html=1;align=center;verticalAlign=middle;resizable=0;points=[];" vertex="1" connectable="0" parent="-GfR8gVa66NmHEzd7DJw-21">
          <mxGeometry x="0.1252" y="-2" relative="1" as="geometry">
            <mxPoint as="offset" />
          </mxGeometry>
        </mxCell>
        <mxCell id="-GfR8gVa66NmHEzd7DJw-23" value="Instructor" style="rounded=0;whiteSpace=wrap;html=1;fillColor=#dae8fc;strokeColor=#6c8ebf;" vertex="1" parent="1">
          <mxGeometry x="935" y="840" width="120" height="50" as="geometry" />
        </mxCell>
        <mxCell id="-GfR8gVa66NmHEzd7DJw-24" value="" style="group" vertex="1" connectable="0" parent="1">
          <mxGeometry x="845" y="670" width="80" height="60" as="geometry" />
        </mxCell>
        <mxCell id="-GfR8gVa66NmHEzd7DJw-25" value="" style="triangle;whiteSpace=wrap;html=1;rotation=-90;" vertex="1" parent="-GfR8gVa66NmHEzd7DJw-24">
          <mxGeometry x="10" y="-10" width="60" height="80" as="geometry" />
        </mxCell>
        <mxCell id="-GfR8gVa66NmHEzd7DJw-26" value="IS-A" style="text;html=1;align=center;verticalAlign=middle;whiteSpace=wrap;rounded=0;" vertex="1" parent="-GfR8gVa66NmHEzd7DJw-24">
          <mxGeometry x="25" y="30" width="30" height="20" as="geometry" />
        </mxCell>
        <mxCell id="-GfR8gVa66NmHEzd7DJw-27" value="" style="endArrow=none;html=1;rounded=0;entryX=0;entryY=0.5;entryDx=0;entryDy=0;exitX=0.563;exitY=0.012;exitDx=0;exitDy=0;exitPerimeter=0;" edge="1" parent="1" source="-GfR8gVa66NmHEzd7DJw-20" target="-GfR8gVa66NmHEzd7DJw-25">
          <mxGeometry relative="1" as="geometry">
            <mxPoint x="1070" y="500" as="sourcePoint" />
            <mxPoint x="889" y="521" as="targetPoint" />
          </mxGeometry>
        </mxCell>
        <mxCell id="-GfR8gVa66NmHEzd7DJw-28" value="" style="endArrow=none;html=1;rounded=0;entryX=0;entryY=0.5;entryDx=0;entryDy=0;exitX=0.5;exitY=0;exitDx=0;exitDy=0;" edge="1" parent="1" source="-GfR8gVa66NmHEzd7DJw-23" target="-GfR8gVa66NmHEzd7DJw-25">
          <mxGeometry relative="1" as="geometry">
            <mxPoint x="778" y="851" as="sourcePoint" />
            <mxPoint x="895" y="740" as="targetPoint" />
          </mxGeometry>
        </mxCell>
        <mxCell id="-GfR8gVa66NmHEzd7DJw-29" value="Course" style="rounded=0;whiteSpace=wrap;html=1;fillColor=#dae8fc;strokeColor=#6c8ebf;" vertex="1" parent="1">
          <mxGeometry x="1490" y="840" width="120" height="50" as="geometry" />
        </mxCell>
        <mxCell id="-GfR8gVa66NmHEzd7DJw-30" style="edgeStyle=orthogonalEdgeStyle;rounded=0;orthogonalLoop=1;jettySize=auto;html=1;endArrow=none;endFill=0;" edge="1" parent="1" source="-GfR8gVa66NmHEzd7DJw-32" target="-GfR8gVa66NmHEzd7DJw-29">
          <mxGeometry relative="1" as="geometry" />
        </mxCell>
        <mxCell id="-GfR8gVa66NmHEzd7DJw-31" value="M" style="edgeLabel;html=1;align=center;verticalAlign=middle;resizable=0;points=[];" vertex="1" connectable="0" parent="-GfR8gVa66NmHEzd7DJw-30">
          <mxGeometry x="-0.135" y="-3" relative="1" as="geometry">
            <mxPoint as="offset" />
          </mxGeometry>
        </mxCell>
        <mxCell id="-GfR8gVa66NmHEzd7DJw-32" value="manage" style="shape=rhombus;perimeter=rhombusPerimeter;whiteSpace=wrap;html=1;align=center;fillColor=#ffe6cc;strokeColor=#d79b00;" vertex="1" parent="1">
          <mxGeometry x="1210" y="835" width="120" height="60" as="geometry" />
        </mxCell>
        <mxCell id="-GfR8gVa66NmHEzd7DJw-33" value="&lt;u&gt;courseID&lt;/u&gt;" style="ellipse;whiteSpace=wrap;html=1;align=center;fillColor=#fff2cc;strokeColor=#d6b656;" vertex="1" parent="1">
          <mxGeometry x="1250" y="730" width="100" height="40" as="geometry" />
        </mxCell>
        <mxCell id="-GfR8gVa66NmHEzd7DJw-34" value="title" style="ellipse;whiteSpace=wrap;html=1;align=center;fillColor=#fff2cc;strokeColor=#d6b656;" vertex="1" parent="1">
          <mxGeometry x="1300" y="680" width="100" height="40" as="geometry" />
        </mxCell>
        <mxCell id="-GfR8gVa66NmHEzd7DJw-35" value="description" style="ellipse;whiteSpace=wrap;html=1;align=center;fillColor=#fff2cc;strokeColor=#d6b656;" vertex="1" parent="1">
          <mxGeometry x="1380" y="640" width="100" height="40" as="geometry" />
        </mxCell>
        <mxCell id="-GfR8gVa66NmHEzd7DJw-36" value="content" style="ellipse;whiteSpace=wrap;html=1;align=center;fillColor=#fff2cc;strokeColor=#d6b656;" vertex="1" parent="1">
          <mxGeometry x="1490" y="640" width="100" height="40" as="geometry" />
        </mxCell>
        <mxCell id="-GfR8gVa66NmHEzd7DJw-37" value="" style="endArrow=none;html=1;rounded=0;entryX=0.5;entryY=0;entryDx=0;entryDy=0;exitX=0.704;exitY=1.02;exitDx=0;exitDy=0;exitPerimeter=0;" edge="1" parent="1" source="-GfR8gVa66NmHEzd7DJw-33" target="-GfR8gVa66NmHEzd7DJw-29">
          <mxGeometry relative="1" as="geometry">
            <mxPoint x="1341" y="790" as="sourcePoint" />
            <mxPoint x="1160" y="811" as="targetPoint" />
          </mxGeometry>
        </mxCell>
        <mxCell id="-GfR8gVa66NmHEzd7DJw-38" value="" style="endArrow=none;html=1;rounded=0;entryX=0.5;entryY=0;entryDx=0;entryDy=0;exitX=0.5;exitY=1;exitDx=0;exitDy=0;" edge="1" parent="1" source="-GfR8gVa66NmHEzd7DJw-34" target="-GfR8gVa66NmHEzd7DJw-29">
          <mxGeometry relative="1" as="geometry">
            <mxPoint x="1341" y="790" as="sourcePoint" />
            <mxPoint x="1160" y="811" as="targetPoint" />
          </mxGeometry>
        </mxCell>
        <mxCell id="-GfR8gVa66NmHEzd7DJw-39" value="" style="endArrow=none;html=1;rounded=0;entryX=0.5;entryY=0;entryDx=0;entryDy=0;exitX=0;exitY=1;exitDx=0;exitDy=0;" edge="1" parent="1" source="-GfR8gVa66NmHEzd7DJw-35" target="-GfR8gVa66NmHEzd7DJw-29">
          <mxGeometry relative="1" as="geometry">
            <mxPoint x="1341" y="790" as="sourcePoint" />
            <mxPoint x="1160" y="811" as="targetPoint" />
          </mxGeometry>
        </mxCell>
        <mxCell id="-GfR8gVa66NmHEzd7DJw-40" value="" style="endArrow=none;html=1;rounded=0;entryX=0.5;entryY=0;entryDx=0;entryDy=0;exitX=0.053;exitY=0.708;exitDx=0;exitDy=0;exitPerimeter=0;" edge="1" parent="1" source="-GfR8gVa66NmHEzd7DJw-54" target="-GfR8gVa66NmHEzd7DJw-29">
          <mxGeometry relative="1" as="geometry">
            <mxPoint x="1341" y="790" as="sourcePoint" />
            <mxPoint x="1160" y="811" as="targetPoint" />
          </mxGeometry>
        </mxCell>
        <mxCell id="-GfR8gVa66NmHEzd7DJw-41" style="edgeStyle=orthogonalEdgeStyle;rounded=0;orthogonalLoop=1;jettySize=auto;html=1;entryX=0.5;entryY=1;entryDx=0;entryDy=0;endArrow=none;endFill=0;" edge="1" parent="1" source="-GfR8gVa66NmHEzd7DJw-43" target="-GfR8gVa66NmHEzd7DJw-29">
          <mxGeometry relative="1" as="geometry" />
        </mxCell>
        <mxCell id="-GfR8gVa66NmHEzd7DJw-42" value="N" style="edgeLabel;html=1;align=center;verticalAlign=middle;resizable=0;points=[];" vertex="1" connectable="0" parent="-GfR8gVa66NmHEzd7DJw-41">
          <mxGeometry x="-0.2636" relative="1" as="geometry">
            <mxPoint as="offset" />
          </mxGeometry>
        </mxCell>
        <mxCell id="-GfR8gVa66NmHEzd7DJw-43" value="enroll" style="shape=rhombus;perimeter=rhombusPerimeter;whiteSpace=wrap;html=1;align=center;fillColor=#ffe6cc;strokeColor=#d79b00;" vertex="1" parent="1">
          <mxGeometry x="1067.6399999999999" y="1110" width="120" height="60" as="geometry" />
        </mxCell>
        <mxCell id="-GfR8gVa66NmHEzd7DJw-44" value="status" style="ellipse;whiteSpace=wrap;html=1;align=center;fillColor=#fff2cc;strokeColor=#d6b656;" vertex="1" parent="1">
          <mxGeometry x="900" y="1180" width="100" height="40" as="geometry" />
        </mxCell>
        <mxCell id="-GfR8gVa66NmHEzd7DJw-45" value="enrollmentDate" style="ellipse;whiteSpace=wrap;html=1;align=center;fillColor=#fff2cc;strokeColor=#d6b656;" vertex="1" parent="1">
          <mxGeometry x="960" y="1260" width="100" height="40" as="geometry" />
        </mxCell>
        <mxCell id="-GfR8gVa66NmHEzd7DJw-46" value="completionDate" style="ellipse;whiteSpace=wrap;html=1;align=center;fillColor=#fff2cc;strokeColor=#d6b656;" vertex="1" parent="1">
          <mxGeometry x="1075" y="1300" width="100" height="40" as="geometry" />
        </mxCell>
        <mxCell id="-GfR8gVa66NmHEzd7DJw-47" value="lastAccessed" style="ellipse;whiteSpace=wrap;html=1;align=center;fillColor=#fff2cc;strokeColor=#d6b656;" vertex="1" parent="1">
          <mxGeometry x="1210" y="1270" width="100" height="40" as="geometry" />
        </mxCell>
        <mxCell id="-GfR8gVa66NmHEzd7DJw-48" value="progress" style="ellipse;whiteSpace=wrap;html=1;align=center;fillColor=#fff2cc;strokeColor=#d6b656;" vertex="1" parent="1">
          <mxGeometry x="1280" y="1200" width="100" height="40" as="geometry" />
        </mxCell>
        <mxCell id="-GfR8gVa66NmHEzd7DJw-49" value="" style="endArrow=none;html=1;rounded=0;entryX=0;entryY=0.5;entryDx=0;entryDy=0;exitX=0.5;exitY=1;exitDx=0;exitDy=0;" edge="1" parent="1" source="-GfR8gVa66NmHEzd7DJw-43" target="-GfR8gVa66NmHEzd7DJw-48">
          <mxGeometry relative="1" as="geometry">
            <mxPoint x="1220" y="1185.5" as="sourcePoint" />
            <mxPoint x="1330" y="1254.5" as="targetPoint" />
          </mxGeometry>
        </mxCell>
        <mxCell id="-GfR8gVa66NmHEzd7DJw-50" value="" style="endArrow=none;html=1;rounded=0;entryX=0.33;entryY=0.163;entryDx=0;entryDy=0;exitX=0.5;exitY=1;exitDx=0;exitDy=0;entryPerimeter=0;" edge="1" parent="1" source="-GfR8gVa66NmHEzd7DJw-43" target="-GfR8gVa66NmHEzd7DJw-47">
          <mxGeometry relative="1" as="geometry">
            <mxPoint x="1220" y="1185.5" as="sourcePoint" />
            <mxPoint x="1330" y="1254.5" as="targetPoint" />
          </mxGeometry>
        </mxCell>
        <mxCell id="-GfR8gVa66NmHEzd7DJw-51" value="" style="endArrow=none;html=1;rounded=0;entryX=0.65;entryY=0;entryDx=0;entryDy=0;exitX=0.5;exitY=1;exitDx=0;exitDy=0;entryPerimeter=0;" edge="1" parent="1" source="-GfR8gVa66NmHEzd7DJw-43" target="-GfR8gVa66NmHEzd7DJw-46">
          <mxGeometry relative="1" as="geometry">
            <mxPoint x="1220" y="1185.5" as="sourcePoint" />
            <mxPoint x="1330" y="1254.5" as="targetPoint" />
          </mxGeometry>
        </mxCell>
        <mxCell id="-GfR8gVa66NmHEzd7DJw-52" value="" style="endArrow=none;html=1;rounded=0;entryX=1;entryY=0;entryDx=0;entryDy=0;exitX=0.5;exitY=1;exitDx=0;exitDy=0;" edge="1" parent="1" source="-GfR8gVa66NmHEzd7DJw-43" target="-GfR8gVa66NmHEzd7DJw-45">
          <mxGeometry relative="1" as="geometry">
            <mxPoint x="1220" y="1185.5" as="sourcePoint" />
            <mxPoint x="1330" y="1254.5" as="targetPoint" />
          </mxGeometry>
        </mxCell>
        <mxCell id="-GfR8gVa66NmHEzd7DJw-53" value="" style="endArrow=none;html=1;rounded=0;entryX=1;entryY=0.5;entryDx=0;entryDy=0;exitX=0.5;exitY=1;exitDx=0;exitDy=0;" edge="1" parent="1" source="-GfR8gVa66NmHEzd7DJw-43" target="-GfR8gVa66NmHEzd7DJw-44">
          <mxGeometry relative="1" as="geometry">
            <mxPoint x="1220" y="1185.5" as="sourcePoint" />
            <mxPoint x="1330" y="1254.5" as="targetPoint" />
          </mxGeometry>
        </mxCell>
        <mxCell id="-GfR8gVa66NmHEzd7DJw-54" value="level" style="ellipse;whiteSpace=wrap;html=1;align=center;fillColor=#fff2cc;strokeColor=#d6b656;" vertex="1" parent="1">
          <mxGeometry x="1610" y="640" width="100" height="40" as="geometry" />
        </mxCell>
        <mxCell id="-GfR8gVa66NmHEzd7DJw-55" value="duration" style="ellipse;whiteSpace=wrap;html=1;align=center;fillColor=#fff2cc;strokeColor=#d6b656;" vertex="1" parent="1">
          <mxGeometry x="1710" y="660" width="100" height="40" as="geometry" />
        </mxCell>
        <mxCell id="-GfR8gVa66NmHEzd7DJw-56" value="category" style="ellipse;whiteSpace=wrap;html=1;align=center;fillColor=#fff2cc;strokeColor=#d6b656;" vertex="1" parent="1">
          <mxGeometry x="1800" y="690" width="100" height="40" as="geometry" />
        </mxCell>
        <mxCell id="-GfR8gVa66NmHEzd7DJw-57" value="" style="endArrow=none;html=1;rounded=0;entryX=0.5;entryY=0;entryDx=0;entryDy=0;exitX=0.233;exitY=0.925;exitDx=0;exitDy=0;exitPerimeter=0;" edge="1" parent="1" source="-GfR8gVa66NmHEzd7DJw-36" target="-GfR8gVa66NmHEzd7DJw-29">
          <mxGeometry relative="1" as="geometry">
            <mxPoint x="1725" y="768" as="sourcePoint" />
            <mxPoint x="1560" y="850" as="targetPoint" />
          </mxGeometry>
        </mxCell>
        <mxCell id="-GfR8gVa66NmHEzd7DJw-58" value="" style="endArrow=none;html=1;rounded=0;entryX=0.5;entryY=0;entryDx=0;entryDy=0;exitX=0;exitY=0.5;exitDx=0;exitDy=0;" edge="1" parent="1" source="-GfR8gVa66NmHEzd7DJw-55" target="-GfR8gVa66NmHEzd7DJw-29">
          <mxGeometry relative="1" as="geometry">
            <mxPoint x="1725" y="768" as="sourcePoint" />
            <mxPoint x="1560" y="850" as="targetPoint" />
          </mxGeometry>
        </mxCell>
        <mxCell id="-GfR8gVa66NmHEzd7DJw-59" value="" style="endArrow=none;html=1;rounded=0;exitX=0;exitY=0.5;exitDx=0;exitDy=0;" edge="1" parent="1" source="-GfR8gVa66NmHEzd7DJw-67">
          <mxGeometry relative="1" as="geometry">
            <mxPoint x="1780" y="810" as="sourcePoint" />
            <mxPoint x="1560" y="840" as="targetPoint" />
          </mxGeometry>
        </mxCell>
        <mxCell id="-GfR8gVa66NmHEzd7DJw-60" value="enrolledCourse" style="ellipse;whiteSpace=wrap;html=1;align=center;fillColor=#fff2cc;strokeColor=#d6b656;" vertex="1" parent="1">
          <mxGeometry x="590" y="940" width="100" height="40" as="geometry" />
        </mxCell>
        <mxCell id="-GfR8gVa66NmHEzd7DJw-61" value="createdCourses" style="ellipse;whiteSpace=wrap;html=1;align=center;fillColor=#fff2cc;strokeColor=#d6b656;" vertex="1" parent="1">
          <mxGeometry x="1047.6399999999999" y="740" width="100" height="40" as="geometry" />
        </mxCell>
        <mxCell id="-GfR8gVa66NmHEzd7DJw-62" value="" style="endArrow=none;html=1;rounded=0;entryX=0;entryY=1;entryDx=0;entryDy=0;exitX=0.5;exitY=0;exitDx=0;exitDy=0;" edge="1" parent="1" source="-GfR8gVa66NmHEzd7DJw-60" target="-GfR8gVa66NmHEzd7DJw-20">
          <mxGeometry relative="1" as="geometry">
            <mxPoint x="710" y="1000" as="sourcePoint" />
            <mxPoint x="582" y="1030" as="targetPoint" />
          </mxGeometry>
        </mxCell>
        <mxCell id="-GfR8gVa66NmHEzd7DJw-63" value="" style="endArrow=none;html=1;rounded=0;exitX=0.75;exitY=0;exitDx=0;exitDy=0;" edge="1" parent="1" source="-GfR8gVa66NmHEzd7DJw-23" target="-GfR8gVa66NmHEzd7DJw-61">
          <mxGeometry relative="1" as="geometry">
            <mxPoint x="1110" y="820" as="sourcePoint" />
            <mxPoint x="1230" y="790" as="targetPoint" />
          </mxGeometry>
        </mxCell>
        <mxCell id="-GfR8gVa66NmHEzd7DJw-64" style="edgeStyle=orthogonalEdgeStyle;rounded=0;orthogonalLoop=1;jettySize=auto;html=1;entryX=0.25;entryY=1;entryDx=0;entryDy=0;endArrow=none;endFill=0;" edge="1" parent="1" source="-GfR8gVa66NmHEzd7DJw-66" target="-GfR8gVa66NmHEzd7DJw-29">
          <mxGeometry relative="1" as="geometry" />
        </mxCell>
        <mxCell id="-GfR8gVa66NmHEzd7DJw-65" value="M" style="edgeLabel;html=1;align=center;verticalAlign=middle;resizable=0;points=[];" vertex="1" connectable="0" parent="-GfR8gVa66NmHEzd7DJw-64">
          <mxGeometry x="-0.421" y="1" relative="1" as="geometry">
            <mxPoint x="-1" as="offset" />
          </mxGeometry>
        </mxCell>
        <mxCell id="-GfR8gVa66NmHEzd7DJw-66" value="view" style="shape=rhombus;perimeter=rhombusPerimeter;whiteSpace=wrap;html=1;align=center;fillColor=#ffe6cc;strokeColor=#d79b00;" vertex="1" parent="1">
          <mxGeometry x="1067.6399999999999" y="980" width="120" height="60" as="geometry" />
        </mxCell>
        <mxCell id="-GfR8gVa66NmHEzd7DJw-67" value="attachments" style="ellipse;whiteSpace=wrap;html=1;align=center;fillColor=#fff2cc;strokeColor=#d6b656;" vertex="1" parent="1">
          <mxGeometry x="1790" y="740" width="100" height="40" as="geometry" />
        </mxCell>
        <mxCell id="-GfR8gVa66NmHEzd7DJw-68" value="" style="endArrow=none;html=1;rounded=0;exitX=0;exitY=0.5;exitDx=0;exitDy=0;" edge="1" parent="1" source="-GfR8gVa66NmHEzd7DJw-56">
          <mxGeometry relative="1" as="geometry">
            <mxPoint x="1820" y="930" as="sourcePoint" />
            <mxPoint x="1560" y="840" as="targetPoint" />
          </mxGeometry>
        </mxCell>
        <mxCell id="-GfR8gVa66NmHEzd7DJw-69" value="thumbnail" style="ellipse;whiteSpace=wrap;html=1;align=center;fillColor=#fff2cc;strokeColor=#d6b656;" vertex="1" parent="1">
          <mxGeometry x="1840" y="790" width="100" height="40" as="geometry" />
        </mxCell>
        <mxCell id="-GfR8gVa66NmHEzd7DJw-70" value="featuredImage" style="ellipse;whiteSpace=wrap;html=1;align=center;fillColor=#fff2cc;strokeColor=#d6b656;" vertex="1" parent="1">
          <mxGeometry x="1780" y="845" width="100" height="40" as="geometry" />
        </mxCell>
        <mxCell id="-GfR8gVa66NmHEzd7DJw-71" value="" style="endArrow=none;html=1;rounded=0;exitX=0;exitY=0.5;exitDx=0;exitDy=0;entryX=0.611;entryY=-0.012;entryDx=0;entryDy=0;entryPerimeter=0;" edge="1" parent="1" source="-GfR8gVa66NmHEzd7DJw-69" target="-GfR8gVa66NmHEzd7DJw-29">
          <mxGeometry relative="1" as="geometry">
            <mxPoint x="1800" y="770" as="sourcePoint" />
            <mxPoint x="1570" y="850" as="targetPoint" />
          </mxGeometry>
        </mxCell>
        <mxCell id="-GfR8gVa66NmHEzd7DJw-72" value="" style="endArrow=none;html=1;rounded=0;exitX=0.105;exitY=0.308;exitDx=0;exitDy=0;exitPerimeter=0;" edge="1" parent="1" source="-GfR8gVa66NmHEzd7DJw-70">
          <mxGeometry relative="1" as="geometry">
            <mxPoint x="1850" y="820" as="sourcePoint" />
            <mxPoint x="1560" y="840" as="targetPoint" />
          </mxGeometry>
        </mxCell>
      </root>
    </mxGraphModel>
  </diagram>
  <diagram id="jB4JHJAImzwHcMDydIIU" name="Page-2">
    <mxGraphModel dx="1554" dy="805" grid="1" gridSize="10" guides="1" tooltips="1" connect="1" arrows="1" fold="1" page="1" pageScale="1" pageWidth="850" pageHeight="1100" math="0" shadow="0">
      <root>
        <mxCell id="0" />
        <mxCell id="1" parent="0" />
        <mxCell id="ze9xcGTvPIoAB0ypmCca-1" value="" style="rounded=0;whiteSpace=wrap;html=1;fillColor=none;strokeColor=#d3d3d3;strokeWidth=2;" vertex="1" parent="1">
          <mxGeometry x="440" y="330" width="1315" height="760" as="geometry" />
        </mxCell>
        <mxCell id="ze9xcGTvPIoAB0ypmCca-2" style="edgeStyle=orthogonalEdgeStyle;rounded=0;orthogonalLoop=1;jettySize=auto;html=1;entryX=0;entryY=0.5;entryDx=0;entryDy=0;" edge="1" parent="1" source="ze9xcGTvPIoAB0ypmCca-3" target="ze9xcGTvPIoAB0ypmCca-7">
          <mxGeometry relative="1" as="geometry">
            <Array as="points">
              <mxPoint x="554" y="532" />
            </Array>
          </mxGeometry>
        </mxCell>
        <mxCell id="ze9xcGTvPIoAB0ypmCca-3" value="" style="sketch=0;pointerEvents=1;shadow=0;dashed=0;html=1;strokeColor=none;fillColor=#505050;labelPosition=center;verticalLabelPosition=bottom;verticalAlign=top;outlineConnect=0;align=center;shape=mxgraph.office.users.user_external;" vertex="1" parent="1">
          <mxGeometry x="495" y="500" width="59" height="50" as="geometry" />
        </mxCell>
        <mxCell id="ze9xcGTvPIoAB0ypmCca-4" value="User" style="text;html=1;align=center;verticalAlign=middle;whiteSpace=wrap;rounded=0;" vertex="1" parent="1">
          <mxGeometry x="485" y="550" width="60" height="30" as="geometry" />
        </mxCell>
        <mxCell id="ze9xcGTvPIoAB0ypmCca-5" style="edgeStyle=orthogonalEdgeStyle;rounded=0;orthogonalLoop=1;jettySize=auto;html=1;entryX=0.432;entryY=0.011;entryDx=0;entryDy=0;startArrow=none;startFill=0;entryPerimeter=0;exitX=0.432;exitY=1.005;exitDx=0;exitDy=0;exitPerimeter=0;" edge="1" parent="1" source="ze9xcGTvPIoAB0ypmCca-7" target="ze9xcGTvPIoAB0ypmCca-18">
          <mxGeometry relative="1" as="geometry" />
        </mxCell>
        <mxCell id="ze9xcGTvPIoAB0ypmCca-6" style="edgeStyle=orthogonalEdgeStyle;rounded=0;orthogonalLoop=1;jettySize=auto;html=1;entryX=0;entryY=0.5;entryDx=0;entryDy=0;dashed=1;" edge="1" parent="1" source="ze9xcGTvPIoAB0ypmCca-7" target="ze9xcGTvPIoAB0ypmCca-31">
          <mxGeometry relative="1" as="geometry" />
        </mxCell>
        <mxCell id="ze9xcGTvPIoAB0ypmCca-7" value="AWS EC2 (Frontend)&lt;div&gt;React App&lt;/div&gt;" style="rounded=1;whiteSpace=wrap;html=1;fillColor=#f5f5f5;fontColor=#333333;strokeColor=#666666;" vertex="1" parent="1">
          <mxGeometry x="902" y="491" width="190" height="82" as="geometry" />
        </mxCell>
        <mxCell id="ze9xcGTvPIoAB0ypmCca-8" value="" style="image;html=1;image=img/lib/clip_art/computers/Database_128x128.png" vertex="1" parent="1">
          <mxGeometry x="1580.5" y="702" width="80" height="80" as="geometry" />
        </mxCell>
        <mxCell id="ze9xcGTvPIoAB0ypmCca-9" value="MongoDB" style="text;html=1;align=center;verticalAlign=middle;whiteSpace=wrap;rounded=0;" vertex="1" parent="1">
          <mxGeometry x="1590.5" y="782" width="60" height="30" as="geometry" />
        </mxCell>
        <mxCell id="ze9xcGTvPIoAB0ypmCca-10" value="" style="endArrow=none;dashed=1;html=1;rounded=0;" edge="1" parent="1">
          <mxGeometry width="50" height="50" relative="1" as="geometry">
            <mxPoint x="1485" y="1030" as="sourcePoint" />
            <mxPoint x="1485" y="370" as="targetPoint" />
          </mxGeometry>
        </mxCell>
        <mxCell id="ze9xcGTvPIoAB0ypmCca-11" value="" style="endArrow=none;dashed=1;html=1;rounded=0;" edge="1" parent="1">
          <mxGeometry width="50" height="50" relative="1" as="geometry">
            <mxPoint x="754" y="1030" as="sourcePoint" />
            <mxPoint x="754" y="370" as="targetPoint" />
          </mxGeometry>
        </mxCell>
        <mxCell id="ze9xcGTvPIoAB0ypmCca-12" value="Client" style="text;html=1;align=center;verticalAlign=middle;whiteSpace=wrap;rounded=0;" vertex="1" parent="1">
          <mxGeometry x="517" y="370" width="60" height="30" as="geometry" />
        </mxCell>
        <mxCell id="ze9xcGTvPIoAB0ypmCca-13" value="Middle Tier" style="text;html=1;align=center;verticalAlign=middle;whiteSpace=wrap;rounded=0;" vertex="1" parent="1">
          <mxGeometry x="1050" y="370" width="131" height="30" as="geometry" />
        </mxCell>
        <mxCell id="ze9xcGTvPIoAB0ypmCca-14" value="Database" style="text;html=1;align=center;verticalAlign=middle;whiteSpace=wrap;rounded=0;" vertex="1" parent="1">
          <mxGeometry x="1555" y="370" width="131" height="30" as="geometry" />
        </mxCell>
        <mxCell id="ze9xcGTvPIoAB0ypmCca-15" style="edgeStyle=orthogonalEdgeStyle;rounded=0;orthogonalLoop=1;jettySize=auto;html=1;entryX=0.43;entryY=-0.002;entryDx=0;entryDy=0;entryPerimeter=0;exitX=0.432;exitY=0.989;exitDx=0;exitDy=0;exitPerimeter=0;" edge="1" parent="1" source="ze9xcGTvPIoAB0ypmCca-18" target="ze9xcGTvPIoAB0ypmCca-19">
          <mxGeometry relative="1" as="geometry" />
        </mxCell>
        <mxCell id="ze9xcGTvPIoAB0ypmCca-16" style="edgeStyle=orthogonalEdgeStyle;rounded=0;orthogonalLoop=1;jettySize=auto;html=1;entryX=0.465;entryY=1.033;entryDx=0;entryDy=0;entryPerimeter=0;" edge="1" parent="1" source="ze9xcGTvPIoAB0ypmCca-18" target="ze9xcGTvPIoAB0ypmCca-31">
          <mxGeometry relative="1" as="geometry">
            <Array as="points">
              <mxPoint x="1055" y="680" />
              <mxPoint x="1310" y="680" />
              <mxPoint x="1310" y="603" />
            </Array>
          </mxGeometry>
        </mxCell>
        <mxCell id="ze9xcGTvPIoAB0ypmCca-17" value="FIle upload" style="edgeLabel;html=1;align=center;verticalAlign=middle;resizable=0;points=[];" vertex="1" connectable="0" parent="ze9xcGTvPIoAB0ypmCca-16">
          <mxGeometry x="-0.051" relative="1" as="geometry">
            <mxPoint as="offset" />
          </mxGeometry>
        </mxCell>
        <mxCell id="ze9xcGTvPIoAB0ypmCca-18" value="AWS EC2 (Backend)&lt;div&gt;Node.js/Express&lt;/div&gt;" style="rounded=1;whiteSpace=wrap;html=1;fillColor=#f5f5f5;fontColor=#333333;strokeColor=#666666;" vertex="1" parent="1">
          <mxGeometry x="902" y="700" width="190" height="82" as="geometry" />
        </mxCell>
        <mxCell id="ze9xcGTvPIoAB0ypmCca-19" value="GPT API" style="rounded=1;whiteSpace=wrap;html=1;" vertex="1" parent="1">
          <mxGeometry x="902" y="860" width="190" height="82" as="geometry" />
        </mxCell>
        <mxCell id="ze9xcGTvPIoAB0ypmCca-20" style="edgeStyle=orthogonalEdgeStyle;rounded=0;orthogonalLoop=1;jettySize=auto;html=1;entryX=0.553;entryY=-0.005;entryDx=0;entryDy=0;startArrow=classic;startFill=1;entryPerimeter=0;endArrow=none;endFill=0;exitX=0.56;exitY=1.003;exitDx=0;exitDy=0;exitPerimeter=0;" edge="1" parent="1" source="ze9xcGTvPIoAB0ypmCca-7" target="ze9xcGTvPIoAB0ypmCca-18">
          <mxGeometry relative="1" as="geometry">
            <mxPoint x="1007" y="600" as="sourcePoint" />
            <mxPoint x="1016.22" y="700" as="targetPoint" />
            <Array as="points">
              <mxPoint x="1008" y="637" />
              <mxPoint x="1007" y="637" />
            </Array>
          </mxGeometry>
        </mxCell>
        <mxCell id="ze9xcGTvPIoAB0ypmCca-21" style="edgeStyle=orthogonalEdgeStyle;rounded=0;orthogonalLoop=1;jettySize=auto;html=1;entryX=-0.037;entryY=0.346;entryDx=0;entryDy=0;entryPerimeter=0;" edge="1" parent="1" source="ze9xcGTvPIoAB0ypmCca-18" target="ze9xcGTvPIoAB0ypmCca-8">
          <mxGeometry relative="1" as="geometry">
            <Array as="points">
              <mxPoint x="1165" y="730" />
              <mxPoint x="1165" y="730" />
            </Array>
          </mxGeometry>
        </mxCell>
        <mxCell id="ze9xcGTvPIoAB0ypmCca-22" style="edgeStyle=orthogonalEdgeStyle;rounded=0;orthogonalLoop=1;jettySize=auto;html=1;entryX=0.963;entryY=0.512;entryDx=0;entryDy=0;entryPerimeter=0;" edge="1" parent="1">
          <mxGeometry relative="1" as="geometry">
            <mxPoint x="1575" y="750" as="sourcePoint" />
            <mxPoint x="1092" y="748.9839999999999" as="targetPoint" />
          </mxGeometry>
        </mxCell>
        <mxCell id="ze9xcGTvPIoAB0ypmCca-23" style="edgeStyle=orthogonalEdgeStyle;rounded=0;orthogonalLoop=1;jettySize=auto;html=1;entryX=0.551;entryY=-0.007;entryDx=0;entryDy=0;entryPerimeter=0;exitX=0.555;exitY=0.994;exitDx=0;exitDy=0;exitPerimeter=0;startArrow=classic;startFill=1;endArrow=none;endFill=0;" edge="1" parent="1" source="ze9xcGTvPIoAB0ypmCca-18" target="ze9xcGTvPIoAB0ypmCca-19">
          <mxGeometry relative="1" as="geometry">
            <mxPoint x="994" y="791" as="sourcePoint" />
            <mxPoint x="994" y="870" as="targetPoint" />
          </mxGeometry>
        </mxCell>
        <mxCell id="ze9xcGTvPIoAB0ypmCca-24" value="UI Interaction (clicks, forms, navigations)" style="text;html=1;align=center;verticalAlign=middle;whiteSpace=wrap;rounded=0;" vertex="1" parent="1">
          <mxGeometry x="595" y="491" width="160" height="30" as="geometry" />
        </mxCell>
        <mxCell id="ze9xcGTvPIoAB0ypmCca-25" value="REST API Requests" style="text;html=1;align=center;verticalAlign=middle;whiteSpace=wrap;rounded=0;" vertex="1" parent="1">
          <mxGeometry x="855" y="630" width="140" height="30" as="geometry" />
        </mxCell>
        <mxCell id="ze9xcGTvPIoAB0ypmCca-26" value="API Response" style="text;html=1;align=center;verticalAlign=middle;whiteSpace=wrap;rounded=0;" vertex="1" parent="1">
          <mxGeometry x="1005" y="630" width="140" height="30" as="geometry" />
        </mxCell>
        <mxCell id="ze9xcGTvPIoAB0ypmCca-27" value="CRUD Operations" style="text;html=1;align=center;verticalAlign=middle;whiteSpace=wrap;rounded=0;" vertex="1" parent="1">
          <mxGeometry x="1125" y="702" width="140" height="30" as="geometry" />
        </mxCell>
        <mxCell id="ze9xcGTvPIoAB0ypmCca-28" value="Query Results" style="text;html=1;align=center;verticalAlign=middle;whiteSpace=wrap;rounded=0;" vertex="1" parent="1">
          <mxGeometry x="1125" y="752" width="140" height="30" as="geometry" />
        </mxCell>
        <mxCell id="ze9xcGTvPIoAB0ypmCca-29" value="Prompt Submission" style="text;html=1;align=center;verticalAlign=middle;whiteSpace=wrap;rounded=0;" vertex="1" parent="1">
          <mxGeometry x="855" y="810" width="140" height="30" as="geometry" />
        </mxCell>
        <mxCell id="ze9xcGTvPIoAB0ypmCca-30" value="Recommendation" style="text;html=1;align=center;verticalAlign=middle;whiteSpace=wrap;rounded=0;" vertex="1" parent="1">
          <mxGeometry x="980" y="810" width="190" height="30" as="geometry" />
        </mxCell>
        <mxCell id="ze9xcGTvPIoAB0ypmCca-31" value="Cloudinary" style="rounded=1;whiteSpace=wrap;html=1;" vertex="1" parent="1">
          <mxGeometry x="1221" y="490" width="190" height="82" as="geometry" />
        </mxCell>
        <mxCell id="ze9xcGTvPIoAB0ypmCca-32" style="edgeStyle=orthogonalEdgeStyle;rounded=0;orthogonalLoop=1;jettySize=auto;html=1;entryX=0.931;entryY=0.043;entryDx=0;entryDy=0;entryPerimeter=0;" edge="1" parent="1" source="ze9xcGTvPIoAB0ypmCca-31" target="ze9xcGTvPIoAB0ypmCca-18">
          <mxGeometry relative="1" as="geometry">
            <Array as="points">
              <mxPoint x="1335" y="690" />
              <mxPoint x="1079" y="690" />
            </Array>
          </mxGeometry>
        </mxCell>
        <mxCell id="ze9xcGTvPIoAB0ypmCca-33" value="File URL" style="edgeLabel;html=1;align=center;verticalAlign=middle;resizable=0;points=[];" vertex="1" connectable="0" parent="ze9xcGTvPIoAB0ypmCca-32">
          <mxGeometry x="-0.6281" y="1" relative="1" as="geometry">
            <mxPoint as="offset" />
          </mxGeometry>
        </mxCell>
        <mxCell id="ze9xcGTvPIoAB0ypmCca-34" value="Access/ display images/ files via URL" style="text;html=1;align=center;verticalAlign=middle;whiteSpace=wrap;rounded=0;" vertex="1" parent="1">
          <mxGeometry x="1092" y="490" width="113" height="30" as="geometry" />
        </mxCell>
      </root>
    </mxGraphModel>
  </diagram>
</mxfile>
